# Blender v2.78 (sub 0) OBJ File: ''
# www.blender.org
mtllib elite_head_neckless.mtl
o Special_Elite_fixed
v -3.652493 3.240937 -3.096667
v -3.735881 1.866532 -3.096670
v 0.709516 1.081551 -3.717065
v -2.323318 -1.779922 -3.375381
v -3.652493 3.240937 -3.096667
v -5.820574 6.192643 -9.102273
v -2.162763 2.503418 -4.722407
v -3.020247 4.707780 -8.399480
v 0.709516 1.081551 -3.717065
v 4.909675 -2.016949 2.177058
v 4.847516 -2.017037 2.852548
v 6.057687 -2.547627 2.183754
v 1.701106 -0.123787 2.681507
v 3.996501 -2.776833 1.932457
v 5.981828 -2.547814 1.286896
v 5.357406 -3.641182 1.089858
v 2.222718 -3.814487 -0.044879
v 2.753165 -2.161343 1.960522
v 1.066583 -3.304268 1.089098
v 1.846028 -2.547447 1.951832
v 1.987695 -3.764538 1.772524
v 3.747436 -4.515480 1.634250
v 2.664620 -5.077312 1.387048
v 4.226123 -6.475399 0.014905
v 2.492391 -5.666225 1.316791
v 4.847318 -2.016964 -2.919968
v 4.909644 -2.016968 -2.266911
v 6.057353 -2.547661 -2.229461
v 1.701106 -0.123787 -2.727084
v 2.493068 -5.665649 -1.383391
v 3.181821 -5.323299 -1.788912
v 4.226125 -6.475399 -0.060977
v 5.215322 -4.957542 -1.827554
v 5.693017 -5.198170 -0.060976
v 4.226123 -6.475399 0.014905
v 3.180945 -5.323814 1.743774
v 2.492391 -5.666225 1.316791
v 5.215238 -4.956841 1.780926
v 5.693015 -5.198174 0.014906
v -0.374093 -0.603897 2.058627
v -1.071482 -2.307694 2.327982
v 0.758792 -1.408451 2.156870
v 1.250682 -4.022526 1.911082
v 3.226800 -3.549587 2.435910
v 5.533139 -3.630092 -1.913753
v 6.778628 -2.794769 -1.004435
v 6.057353 -2.547661 -2.229461
v 6.729827 -4.116840 -0.995755
v 6.779235 -2.794777 0.958599
v 5.533092 -3.629887 1.867259
v 6.057687 -2.547627 2.183754
v 6.729020 -4.116631 0.949840
v 4.909644 -2.016968 -2.266911
v 5.533139 -3.630092 -1.913753
v 6.057353 -2.547661 -2.229461
v 3.996503 -2.776832 -2.022215
v 0.709517 1.081550 3.627306
v 3.214259 0.962501 3.358317
v -3.020250 4.707786 8.309725
v 1.701106 -0.123787 2.681507
v -3.652493 3.240921 3.006908
v -0.374093 -0.603897 2.058627
v -3.038949 0.837593 1.918792
v -3.216848 -0.672630 -0.044880
v -0.874588 -2.626141 1.297924
v 0.913775 -1.241448 2.156964
v 4.847516 -2.017037 2.852548
v 3.628705 -2.921513 2.899916
v 5.911712 -3.962265 2.637509
v 6.057687 -2.547627 2.183754
v 6.779235 -2.794777 0.958599
v 6.729020 -4.116631 0.949840
v -3.020247 4.707780 -8.399480
v 3.214261 0.962502 -3.448077
v 0.709516 1.081551 -3.717065
v 1.701106 -0.123787 -2.727084
v -3.652493 3.240937 -3.096667
v -0.374094 -0.603912 -2.148385
v -3.038951 0.837593 -2.008552
v -1.240056 -2.461094 -1.364879
v 4.909644 -2.016968 -2.266911
v 6.820949 -1.825744 -2.225255
v 5.981738 -2.547729 -1.376679
v 7.590138 -2.756996 -0.044879
v 6.479899 -2.794479 -0.045022
v 5.981828 -2.547814 1.286896
v 6.820952 -1.825745 2.135496
v 4.909675 -2.016949 2.177058
v 0.760673 -1.408531 -2.224346
v -0.374094 -0.603912 -2.148385
v 0.913779 -1.241447 -2.246725
v -1.071135 -2.307449 -2.373285
v 1.251069 -4.022243 -1.956330
v 3.226821 -3.549877 -2.482003
v -2.162763 2.503440 4.632649
v -2.323318 -1.779930 3.285623
v 0.709517 1.081550 3.627306
v -3.046530 1.902626 3.692651
v -3.652493 3.240921 3.006908
v -3.735883 1.866523 3.006910
v -2.323318 -1.779922 -3.375381
v -2.162763 2.503418 -4.722407
v 0.709516 1.081551 -3.717065
v -3.046528 1.902627 -3.782411
v -3.735881 1.866532 -3.096670
v -3.652493 3.240937 -3.096667
v -3.057415 7.938438 -0.044879
v -2.222794 8.214577 -1.907573
v -2.236905 6.455101 -3.602542
v -7.707239 17.358864 -0.044878
v -2.222795 8.214577 1.817815
v -2.236908 6.455093 3.512785
v -3.976766 6.210662 2.532755
v -3.757077 7.514519 1.743472
v -5.186948 7.278694 -0.044879
v -9.626114 12.977356 -0.044878
v -3.757077 7.514519 -1.833230
v -3.976767 6.210679 -2.622513
v -1.898677 4.709702 -4.579038
v -3.020247 4.707780 -8.399480
v -5.820574 6.192643 -9.102273
v 3.214261 0.962502 -3.448077
v 4.096749 2.229401 -2.807752
v 6.820949 -1.825744 -2.225255
v 6.110726 1.859658 -1.560696
v 6.877280 1.480179 -0.044879
v 7.590138 -2.756996 -0.044879
v 6.820952 -1.825745 2.135496
v 6.110724 1.859657 1.470940
v 4.096745 2.229400 2.717992
v 3.214259 0.962501 3.358317
v -1.898677 4.709693 4.489278
v -3.020250 4.707786 8.309725
v -5.820575 6.192657 9.392871
v -2.236908 6.455093 3.512785
v 5.168290 3.249779 1.553616
v -2.222795 8.214577 1.817815
v -7.707239 17.358864 -0.044878
v 5.604241 3.762253 -0.044879
v 6.729020 -4.116631 0.949840
v 5.911712 -3.962265 2.637509
v 5.533092 -3.629887 1.867259
v 3.628705 -2.921513 2.899916
v 0.913775 -1.241448 2.156964
v 0.758792 -1.408451 2.156870
v 3.226800 -3.549587 2.435910
v 5.215238 -4.956841 1.780926
v 5.693015 -5.198174 0.014906
v 0.913779 -1.241447 -2.246725
v 4.847318 -2.016964 -2.919968
v 3.628760 -2.921722 -2.946279
v 5.911803 -3.962467 -2.683786
v 6.057353 -2.547661 -2.229461
v 6.778628 -2.794769 -1.004435
v 6.729827 -4.116840 -0.995755
v 4.226125 -6.475399 -0.060977
v 2.665393 -5.076763 -1.431967
v 2.493068 -5.665649 -1.383391
v 3.748229 -4.514904 -1.679178
v 5.693017 -5.198170 -0.060976
v 5.215322 -4.957542 -1.827554
v 3.226821 -3.549877 -2.482003
v 1.684157 -2.685615 -2.091218
v 0.760673 -1.408531 -2.224346
v 0.913779 -1.241447 -2.246725
v 2.753165 -2.161342 -2.028189
v 3.628760 -2.921722 -2.946279
v 3.996503 -2.776832 -2.022215
v 5.533139 -3.630092 -1.913753
v 5.911803 -3.962467 -2.683786
v 6.729827 -4.116840 -0.995755
v 1.988362 -3.763214 -1.861296
v 1.067451 -3.303070 -1.177856
v 5.357408 -3.641182 -1.179615
v 5.981738 -2.547729 -1.376679
v -3.216848 -0.672630 -0.044880
v -1.240056 -2.461094 -1.364879
v -0.874588 -2.626141 1.297924
v 0.774697 -3.061905 -0.044879
v 1.066583 -3.304268 1.089098
v -1.071482 -2.307694 2.327982
v 1.250682 -4.022526 1.911082
v 1.987695 -3.764538 1.772524
v 2.664620 -5.077312 1.387048
v 3.180945 -5.323814 1.743774
v 6.057687 -2.547627 2.183754
v 3.996501 -2.776833 1.932457
v 4.909675 -2.016949 2.177058
v 5.533092 -3.629887 1.867259
v -2.162763 2.503440 4.632649
v -5.820575 6.192657 9.392871
v -3.652493 3.240921 3.006908
v -3.020250 4.707786 8.309725
v 0.709517 1.081550 3.627306
v 3.181821 -5.323299 -1.788912
v 2.665393 -5.076763 -1.431967
v 1.251069 -4.022243 -1.956330
v 1.988362 -3.763214 -1.861296
v 1.067451 -3.303070 -1.177856
v -1.071135 -2.307449 -2.373285
v 2.222718 -3.814487 -0.044879
v 0.709517 1.081550 3.627306
v -3.735883 1.866523 3.006910
v -3.652493 3.240921 3.006908
v -2.323318 -1.779930 3.285623
v -2.236905 6.455101 -3.602542
v 5.168290 3.249779 -1.643373
v -2.222794 8.214577 -1.907573
v 5.975631 -3.947247 -0.044951
v 6.479899 -2.794479 -0.045022
v -3.652493 3.240921 3.006908
v -5.820575 6.192657 9.392871
v -1.898677 4.709693 4.489278
v -1.898677 4.709702 -4.579038
v -5.820574 6.192643 -9.102273
v -3.652493 3.240937 -3.096667
v -1.071482 -2.307694 2.327982
v -0.374093 -0.603897 2.058627
v -0.874588 -2.626141 1.297924
v 0.913775 -1.241448 2.156964
v -0.374093 -0.603897 2.058627
v 0.758792 -1.408451 2.156870
v -0.374094 -0.603912 -2.148385
v -1.071135 -2.307449 -2.373285
v -1.240056 -2.461094 -1.364879
v -1.898677 4.709702 -4.579038
v -3.652493 3.240937 -3.096667
v -2.236905 6.455101 -3.602542
v -3.976767 6.210679 -2.622513
v -3.757077 7.514519 -1.833230
v -3.057415 7.938438 -0.044879
v -9.626114 12.977356 -0.044878
v -3.757077 7.514519 1.743472
v -2.236908 6.455093 3.512785
v -3.976766 6.210662 2.532755
v -3.652493 3.240921 3.006908
v -1.898677 4.709693 4.489278
v 2.665393 -5.076763 -1.431967
v 3.181821 -5.323299 -1.788912
v 2.493068 -5.665649 -1.383391
v 3.180945 -5.323814 1.743774
v 2.664620 -5.077312 1.387048
v 2.492391 -5.666225 1.316791
vn 0.1368 -0.0083 0.9906
vn 0.1341 -0.0238 0.9907
vn -0.5854 -0.7911 -0.1775
vn -0.3387 -0.8397 -0.4244
vn -0.2649 -0.8530 -0.4496
vn 0.4191 0.9071 0.0387
vn 0.5131 0.8570 0.0473
vn 0.3083 -0.6064 0.7330
vn 0.3260 -0.3448 0.8802
vn -0.1610 -0.8071 0.5680
vn -0.3248 -0.6858 0.6513
vn 0.2275 -0.7801 0.5829
vn 0.3527 -0.8380 0.4165
vn 0.6434 0.1844 -0.7430
vn -0.0164 0.1439 -0.9895
vn 0.0569 0.3082 -0.9496
vn -0.1387 0.6104 -0.7798
vn -0.5057 0.2465 -0.8267
vn 0.4204 0.9064 -0.0401
vn 0.5128 0.8571 -0.0489
vn 0.0626 -0.8125 -0.5796
vn 0.1301 -0.7869 -0.6033
vn 0.6323 -0.7262 -0.2699
vn 0.0501 -0.8170 0.5745
vn 0.1309 -0.7868 0.6032
vn 0.6322 -0.7261 0.2703
vn 0.0196 0.1483 0.9887
vn 0.1265 -0.0692 0.9895
vn -0.2245 -0.1330 0.9653
vn -0.1596 -0.3552 0.9211
vn 0.0487 -0.3641 0.9301
vn -0.7040 0.4907 0.5135
vn -0.6014 0.0274 0.7985
vn -0.7036 0.4912 -0.5135
vn -0.6012 0.0281 -0.7986
vn 0.0807 0.2428 0.9667
vn 0.0629 0.2366 0.9696
vn 0.0303 -0.7784 0.6270
vn 0.0590 -0.5858 0.8083
vn -0.4413 -0.7498 0.4929
vn -0.1840 -0.3804 0.9063
vn -0.2904 -0.4552 0.8417
vn -0.4113 -0.7042 0.5788
vn -0.5853 -0.1546 0.7960
vn -0.2137 -0.2876 0.9336
vn -0.2208 -0.2826 0.9335
vn -0.1272 0.2220 0.9667
vn 0.0855 -0.0631 0.9943
vn 0.5409 0.2058 0.8155
vn 0.8657 0.0697 0.4958
vn 0.8981 -0.0370 0.4383
vn 0.0303 -0.7784 -0.6270
vn 0.0565 -0.6055 -0.7938
vn -0.4433 -0.7579 -0.4787
vn -0.1693 -0.3697 -0.9136
vn -0.2904 -0.4552 -0.8417
vn -0.4113 -0.7042 -0.5788
vn -0.5927 -0.0624 -0.8030
vn -0.1222 -0.4251 -0.8969
vn 0.0546 -0.3410 -0.9385
vn 0.0931 -0.8019 -0.5902
vn 0.2679 -0.8483 -0.4568
vn 0.0331 -0.9804 -0.1941
vn 0.0331 -0.9805 0.1939
vn 0.2679 -0.8482 0.4568
vn 0.0931 -0.8018 0.5903
vn 0.0545 -0.3410 0.9385
vn -0.1043 -0.4173 0.9028
vn -0.0976 -0.0438 -0.9943
vn 0.0205 0.1226 -0.9922
vn 0.1193 -0.0791 -0.9897
vn -0.2230 -0.1408 -0.9646
vn -0.1599 -0.3558 -0.9208
vn 0.0479 -0.3646 -0.9299
vn 0.1787 -0.3013 0.9366
vn -0.6429 -0.2077 0.7372
vn -0.7336 0.0160 0.6794
vn -0.7057 0.0428 0.7072
vn -0.6837 -0.2115 0.6984
vn 0.1787 -0.3013 -0.9366
vn -0.6429 -0.2077 -0.7372
vn -0.6837 -0.2115 -0.6984
vn -0.7057 0.0428 -0.7072
vn -0.7336 0.0160 -0.6794
vn -0.8767 0.3373 -0.3428
vn -0.8124 -0.4010 -0.4234
vn -0.8124 -0.4010 0.4234
vn -0.8767 0.3373 0.3428
vn -0.7287 0.4403 0.5246
vn -0.6427 -0.5007 0.5799
vn -0.6427 -0.5007 -0.5799
vn -0.7287 0.4403 -0.5245
vn 0.4916 0.8587 -0.1448
vn 0.6070 0.7744 -0.1786
vn 0.3564 0.2117 -0.9100
vn 0.4233 0.1562 -0.8924
vn 0.5425 0.2492 -0.8022
vn 0.8890 0.2415 -0.3891
vn 0.9503 0.1599 -0.2670
vn 0.9503 0.1599 0.2670
vn 0.8890 0.2415 0.3891
vn 0.5425 0.2492 0.8022
vn 0.4233 0.1562 0.8924
vn 0.3564 0.2117 0.9100
vn 0.6070 0.7744 0.1786
vn 0.5077 0.8485 0.1495
vn 0.4296 0.5029 0.7500
vn 0.4092 0.4657 0.7847
vn 0.4404 0.6211 0.6484
vn 0.2611 0.3406 0.9033
vn 0.6590 0.6452 0.3866
vn 0.7778 0.5051 0.3741
vn 0.5405 0.3202 0.7780
vn -0.4673 -0.8719 -0.1465
vn -0.4250 -0.8882 -0.1744
vn -0.4723 -0.8276 -0.3033
vn -0.4297 -0.8547 -0.2912
vn -0.4538 -0.8507 -0.2654
vn 0.0435 -0.1246 0.9912
vn 0.0945 -0.0883 0.9916
vn 0.6261 0.6696 -0.3997
vn 0.6261 0.6694 -0.3999
vn 0.2758 0.6976 -0.6613
vn 0.2923 0.9549 -0.0514
vn -0.4402 0.5056 -0.7420
vn -0.2022 -0.2630 -0.9434
vn -0.2119 -0.2561 -0.9431
vn -0.1270 0.1993 -0.9717
vn 0.0790 -0.0774 -0.9939
vn 0.5510 0.2032 -0.8094
vn 0.8657 0.0701 -0.4956
vn 0.8980 -0.0360 -0.4385
vn -0.5242 0.2212 0.8224
vn -0.1385 0.6101 0.7801
vn -0.4400 0.5054 0.7423
vn 0.2932 0.9547 0.0508
vn 0.2775 0.6986 0.6595
vn 0.5162 0.6951 0.5003
vn 0.4267 0.3934 0.8143
vn -0.0180 -0.1165 -0.9930
vn 0.0881 -0.0601 -0.9943
vn -0.4562 -0.8486 0.2677
vn -0.4240 -0.8536 0.3026
vn -0.4773 -0.8191 0.3184
vn -0.4250 -0.8882 0.1744
vn -0.4671 -0.8719 0.1466
vn 0.0437 0.3306 0.9427
vn -0.0137 0.2049 0.9787
vn 0.6634 0.3305 0.6713
vn 0.4357 -0.8543 -0.2834
vn 0.2307 -0.7769 -0.5859
vn -0.3328 -0.6787 -0.6547
vn -0.1610 -0.8071 -0.5680
vn 0.3260 -0.3448 -0.8802
vn 0.3083 -0.6065 -0.7329
vn -0.6543 -0.7550 0.0430
vn -0.2723 -0.9620 -0.0223
vn -0.3385 -0.9342 -0.1125
vn -0.2989 -0.9263 0.2292
vn -0.5797 -0.6735 -0.4587
vn 0.1305 -0.7319 -0.6688
vn -0.2361 0.1597 -0.9585
vn -0.5344 -0.8194 0.2073
vn 0.0970 0.1975 -0.9755
vn 0.0914 0.2385 -0.9668
vn -0.5806 -0.7961 0.1709
vn -0.2791 -0.8509 0.4450
vn -0.2649 -0.8530 0.4496
vn -0.5343 -0.8196 -0.2070
vn -0.1975 0.2111 0.9573
vn 0.1592 -0.7062 0.6899
vn -0.5758 -0.6637 0.4774
vn -0.3222 -0.9263 -0.1951
vn -0.3485 -0.9311 0.1081
vn -0.4600 -0.8852 0.0695
vn -0.4600 -0.8851 -0.0708
vn 0.1368 -0.0083 -0.9906
vn 0.1341 -0.0238 -0.9907
vn 0.4296 0.5029 -0.7500
vn 0.4092 0.4657 -0.7847
vn 0.4404 0.6211 -0.6484
vn 0.2611 0.3406 -0.9033
vn 0.6590 0.6452 -0.3866
vn 0.7778 0.5051 -0.3741
vn 0.5405 0.3202 -0.7780
vn 0.8318 0.4640 0.3045
vn 0.8318 0.4640 -0.3045
vn 0.8456 -0.3699 -0.3849
vn 0.7011 -0.4931 -0.5150
vn -0.0343 -0.9695 -0.2428
vn -0.0343 -0.9695 0.2428
vn 0.7011 -0.4932 0.5150
vn 0.8457 -0.3699 0.3847
vn -0.2876 0.8284 -0.4806
vn -0.2663 0.8235 0.5009
vn -0.9045 0.3269 -0.2740
vn -0.0524 0.0480 0.9975
vn -0.9169 0.3877 -0.0945
vn -0.7306 0.2200 -0.6464
vn -0.4979 0.0834 -0.8632
vn -0.4749 0.5129 -0.7151
vn 0.2634 0.9105 -0.3189
vn 0.5599 0.7299 -0.3921
vn 0.5599 0.7299 0.3921
vn 0.2634 0.9105 0.3189
vn -0.4749 0.5129 0.7151
vn -0.4979 0.0834 0.8632
vn -0.7306 0.2200 0.6464
vn -0.5376 0.0881 -0.8386
vn -0.5476 0.0606 0.8345
usemtl None
s off
f 1//1 2//1 3//1
f 4//2 3//2 2//2
f 5//3 6//3 7//3
f 8//4 7//4 6//4
f 7//5 8//5 9//5
f 10//6 11//6 12//6
f 11//7 10//7 13//7
f 14//8 15//8 10//8
f 15//9 14//9 16//9
f 16//10 14//10 17//10
f 18//11 17//11 14//11
f 17//12 18//12 19//12
f 20//13 19//13 18//13
f 19//14 20//14 21//14
f 22//15 21//15 20//15
f 21//16 22//16 23//16
f 24//17 23//17 22//17
f 23//18 24//18 25//18
f 26//19 27//19 28//19
f 27//20 26//20 29//20
f 30//21 31//21 32//21
f 33//22 32//22 31//22
f 32//23 33//23 34//23
f 35//24 36//24 37//24
f 36//25 35//25 38//25
f 39//26 38//26 35//26
f 40//27 41//27 42//27
f 43//28 42//28 41//28
f 42//29 43//29 44//29
f 36//30 44//30 43//30
f 44//31 36//31 38//31
f 45//32 46//32 47//32
f 46//33 45//33 48//33
f 49//34 50//34 51//34
f 50//35 49//35 52//35
f 53//36 54//36 55//36
f 54//37 53//37 56//37
f 57//38 58//38 59//38
f 58//39 57//39 60//39
f 61//40 60//40 57//40
f 60//41 61//41 62//41
f 63//42 62//42 61//42
f 64//43 62//43 63//43
f 62//44 64//44 65//44
f 66//45 60//45 62//45
f 60//46 66//46 67//46
f 68//47 67//47 66//47
f 69//48 67//48 68//48
f 67//49 69//49 70//49
f 70//50 69//50 71//50
f 72//51 71//51 69//51
f 73//52 74//52 75//52
f 76//53 75//53 74//53
f 75//54 76//54 77//54
f 78//55 77//55 76//55
f 77//56 78//56 79//56
f 79//57 78//57 64//57
f 80//58 64//58 78//58
f 76//59 74//59 81//59
f 82//60 81//60 74//60
f 81//61 82//61 83//61
f 84//62 83//62 82//62
f 83//63 84//63 85//63
f 85//64 84//64 86//64
f 87//65 86//65 84//65
f 86//66 87//66 88//66
f 58//67 88//67 87//67
f 88//68 58//68 60//68
f 89//69 90//69 91//69
f 90//70 89//70 92//70
f 92//71 89//71 93//71
f 94//72 93//72 89//72
f 93//73 94//73 31//73
f 33//74 31//74 94//74
f 95//75 96//75 97//75
f 96//76 95//76 98//76
f 99//77 98//77 95//77
f 100//78 98//78 99//78
f 98//79 100//79 96//79
f 101//80 102//80 103//80
f 102//81 101//81 104//81
f 105//82 104//82 101//82
f 106//83 104//83 105//83
f 104//84 106//84 102//84
f 107//85 108//85 109//85
f 108//86 107//86 110//86
f 110//87 107//87 111//87
f 112//88 111//88 107//88
f 113//89 114//89 115//89
f 116//90 115//90 114//90
f 117//91 115//91 116//91
f 115//92 117//92 118//92
f 119//93 120//93 121//93
f 120//94 119//94 122//94
f 123//95 122//95 119//95
f 122//96 123//96 124//96
f 125//97 124//97 123//97
f 126//98 124//98 125//98
f 124//99 126//99 127//99
f 127//100 126//100 128//100
f 129//101 128//101 126//101
f 130//102 128//102 129//102
f 128//103 130//103 131//103
f 132//104 131//104 130//104
f 131//105 132//105 133//105
f 134//106 133//106 132//106
f 132//107 130//107 135//107
f 136//108 135//108 130//108
f 135//109 136//109 137//109
f 137//110 136//110 138//110
f 138//111 136//111 139//111
f 139//112 136//112 129//112
f 130//113 129//113 136//113
f 140//114 141//114 142//114
f 143//115 142//115 141//115
f 142//116 143//116 14//116
f 14//117 143//117 18//117
f 144//118 18//118 143//118
f 18//119 144//119 20//119
f 145//120 20//120 144//120
f 146//121 20//121 145//121
f 20//122 146//122 22//122
f 147//123 22//123 146//123
f 148//124 22//124 147//124
f 22//125 148//125 24//125
f 78//126 76//126 149//126
f 150//127 149//127 76//127
f 149//128 150//128 151//128
f 151//129 150//129 152//129
f 153//130 152//130 150//130
f 154//131 152//131 153//131
f 152//132 154//132 155//132
f 156//133 157//133 158//133
f 157//134 156//134 159//134
f 160//135 159//135 156//135
f 161//136 159//136 160//136
f 162//137 159//137 161//137
f 159//138 162//138 163//138
f 164//139 163//139 162//139
f 165//140 163//140 164//140
f 163//141 165//141 166//141
f 167//142 166//142 165//142
f 166//143 167//143 168//143
f 168//144 167//144 169//144
f 170//145 169//145 167//145
f 169//146 170//146 171//146
f 159//147 172//147 157//147
f 163//148 172//148 159//148
f 172//149 163//149 173//149
f 166//150 173//150 163//150
f 173//151 166//151 17//151
f 168//152 17//152 166//152
f 17//153 168//153 174//153
f 174//154 168//154 175//154
f 27//155 175//155 168//155
f 176//156 177//156 178//156
f 179//157 178//157 177//157
f 180//158 178//158 179//158
f 178//159 180//159 181//159
f 181//160 180//160 182//160
f 183//161 182//161 180//161
f 184//162 182//162 183//162
f 182//163 184//163 185//163
f 186//164 187//164 188//164
f 187//165 186//165 189//165
f 190//166 191//166 192//166
f 191//167 190//167 193//167
f 194//168 193//168 190//168
f 195//169 196//169 197//169
f 198//170 197//170 196//170
f 199//171 197//171 198//171
f 197//172 199//172 200//172
f 200//173 199//173 177//173
f 177//174 199//174 179//174
f 201//175 179//175 199//175
f 179//176 201//176 180//176
f 202//177 203//177 204//177
f 203//178 202//178 205//178
f 206//179 123//179 119//179
f 123//180 206//180 207//180
f 208//181 207//181 206//181
f 138//182 207//182 208//182
f 139//183 207//183 138//183
f 125//184 207//184 139//184
f 207//185 125//185 123//185
f 129//186 126//186 139//186
f 125//187 139//187 126//187
f 209//188 175//188 210//188
f 175//189 209//189 174//189
f 174//190 209//190 17//190
f 17//191 209//191 16//191
f 16//192 209//192 15//192
f 210//193 15//193 209//193
f 211//194 212//194 213//194
f 214//195 215//195 216//195
f 217//196 218//196 219//196
f 220//197 221//197 222//197
f 223//198 224//198 225//198
f 226//199 227//199 228//199
f 229//200 228//200 227//200
f 230//201 228//201 229//201
f 228//202 230//202 231//202
f 232//203 231//203 230//203
f 233//204 231//204 232//204
f 231//205 233//205 234//205
f 235//206 234//206 233//206
f 236//207 234//207 235//207
f 234//208 236//208 237//208
f 238//209 239//209 240//209
f 241//210 242//210 243//210
