# Blender v2.78 (sub 0) OBJ File: ''
# www.blender.org
mtllib elite_head.mtl
o Special_Elite_fixed
v -3.652493 3.240937 -3.096667
v -3.735881 1.866532 -3.096670
v 0.709516 1.081551 -3.717065
v -2.323318 -1.779922 -3.375381
v -3.652493 3.240937 -3.096667
v -5.820574 6.192643 -9.102273
v -2.162763 2.503418 -4.722407
v -3.020247 4.707780 -8.399480
v 0.709516 1.081551 -3.717065
v 4.909675 -2.016949 2.177058
v 4.847516 -2.017037 2.852548
v 6.057687 -2.547627 2.183754
v 1.701106 -0.123787 2.681507
v 3.996501 -2.776833 1.932457
v 5.981828 -2.547814 1.286896
v 5.357406 -3.641182 1.089858
v 2.222718 -3.814487 -0.044879
v 2.753165 -2.161343 1.960522
v 1.066583 -3.304268 1.089098
v 1.846028 -2.547447 1.951832
v 1.987695 -3.764538 1.772524
v 3.747436 -4.515480 1.634250
v 2.664620 -5.077312 1.387048
v 4.226123 -6.475399 0.014905
v 2.492391 -5.666225 1.316791
v 4.847318 -2.016964 -2.919968
v 4.909644 -2.016968 -2.266911
v 6.057353 -2.547661 -2.229461
v 1.701106 -0.123787 -2.727084
v 2.493068 -5.665649 -1.383391
v 3.181821 -5.323299 -1.788912
v 4.226125 -6.475399 -0.060977
v 5.215322 -4.957542 -1.827554
v 5.693017 -5.198170 -0.060976
v 4.226123 -6.475399 0.014905
v 3.180945 -5.323814 1.743774
v 2.492391 -5.666225 1.316791
v 5.215238 -4.956841 1.780926
v 5.693015 -5.198174 0.014906
v -0.374093 -0.603897 2.058627
v -1.071482 -2.307694 2.327982
v 0.758792 -1.408451 2.156870
v 1.250682 -4.022526 1.911082
v 3.226800 -3.549587 2.435910
v 5.533139 -3.630092 -1.913753
v 6.778628 -2.794769 -1.004435
v 6.057353 -2.547661 -2.229461
v 6.729827 -4.116840 -0.995755
v 6.779235 -2.794777 0.958599
v 5.533092 -3.629887 1.867259
v 6.057687 -2.547627 2.183754
v 6.729020 -4.116631 0.949840
v 4.909644 -2.016968 -2.266911
v 5.533139 -3.630092 -1.913753
v 6.057353 -2.547661 -2.229461
v 3.996503 -2.776832 -2.022215
v 0.709517 1.081550 3.627306
v 3.214259 0.962501 3.358317
v -3.020250 4.707786 8.309725
v 1.701106 -0.123787 2.681507
v -3.652493 3.240921 3.006908
v -0.374093 -0.603897 2.058627
v -3.038949 0.837593 1.918792
v -3.216848 -0.672630 -0.044880
v -0.874588 -2.626141 1.297924
v 0.913775 -1.241448 2.156964
v 4.847516 -2.017037 2.852548
v 3.628705 -2.921513 2.899916
v 5.911712 -3.962265 2.637509
v 6.057687 -2.547627 2.183754
v 6.779235 -2.794777 0.958599
v 6.729020 -4.116631 0.949840
v -3.020247 4.707780 -8.399480
v 3.214261 0.962502 -3.448077
v 0.709516 1.081551 -3.717065
v 1.701106 -0.123787 -2.727084
v -3.652493 3.240937 -3.096667
v -0.374094 -0.603912 -2.148385
v -3.038951 0.837593 -2.008552
v -1.240056 -2.461094 -1.364879
v 4.909644 -2.016968 -2.266911
v 6.820949 -1.825744 -2.225255
v 5.981738 -2.547729 -1.376679
v 7.590138 -2.756996 -0.044879
v 6.479899 -2.794479 -0.045022
v 5.981828 -2.547814 1.286896
v 6.820952 -1.825745 2.135496
v 4.909675 -2.016949 2.177058
v 0.760673 -1.408531 -2.224346
v -0.374094 -0.603912 -2.148385
v 0.913779 -1.241447 -2.246725
v -1.071135 -2.307449 -2.373285
v 1.251069 -4.022243 -1.956330
v 3.226821 -3.549877 -2.482003
v -2.162763 2.503440 4.632649
v -2.323318 -1.779930 3.285623
v 0.709517 1.081550 3.627306
v -3.046530 1.902626 3.692651
v -3.652493 3.240921 3.006908
v -3.735883 1.866523 3.006910
v -2.323318 -1.779922 -3.375381
v -2.162763 2.503418 -4.722407
v 0.709516 1.081551 -3.717065
v -3.046528 1.902627 -3.782411
v -3.735881 1.866532 -3.096670
v -3.652493 3.240937 -3.096667
v -3.038949 0.837593 1.918792
v -5.606626 -0.532356 1.647063
v -3.216848 -0.672630 -0.044880
v -4.892007 -1.405247 -0.044879
v -5.606626 -0.532387 -1.736822
v -3.038951 0.837593 -2.008552
v -5.469470 -4.842587 -0.045193
v -6.574789 -2.946290 3.598822
v -6.574789 -2.946289 -3.688580
v -10.687733 -1.488250 -4.627891
v -9.657877 2.481225 -3.632674
v -15.211145 -0.587379 -3.884121
v -13.524134 3.740959 -2.764881
v -16.753714 0.810623 -0.044879
v -15.146468 4.215057 -0.044879
v -13.524134 3.740951 2.675122
v -15.211144 -0.587403 3.794363
v -9.657877 2.481224 3.542915
v -10.687731 -1.488251 4.538136
v -5.606626 -0.532356 1.647063
v -6.574789 -2.946290 3.598822
v -5.658982 3.839570 -3.026409
v -7.011797 6.096879 -2.647992
v -10.046821 5.467606 -2.673471
v -8.135744 7.317345 -0.044879
v -11.084538 6.840508 -0.044879
v -10.046821 5.467597 2.583713
v -7.011792 6.096878 2.558234
v -5.658982 3.839576 2.936651
v -3.038949 0.837593 1.918792
v -3.652493 3.240921 3.006908
v -3.976766 6.210662 2.532755
v -5.186948 7.278694 -0.044879
v -3.976767 6.210679 -2.622513
v -3.652493 3.240937 -3.096667
v -3.038951 0.837593 -2.008552
v -3.057415 7.938438 -0.044879
v -2.222794 8.214577 -1.907573
v -2.236905 6.455101 -3.602542
v -7.707239 17.358864 -0.044878
v -2.222795 8.214577 1.817815
v -2.236908 6.455093 3.512785
v -3.976766 6.210662 2.532755
v -3.757077 7.514519 1.743472
v -5.186948 7.278694 -0.044879
v -9.626114 12.977356 -0.044878
v -3.757077 7.514519 -1.833230
v -3.976767 6.210679 -2.622513
v -1.898677 4.709702 -4.579038
v -3.020247 4.707780 -8.399480
v -5.820574 6.192643 -9.102273
v 3.214261 0.962502 -3.448077
v 4.096749 2.229401 -2.807752
v 6.820949 -1.825744 -2.225255
v 6.110726 1.859658 -1.560696
v 6.877280 1.480179 -0.044879
v 7.590138 -2.756996 -0.044879
v 6.820952 -1.825745 2.135496
v 6.110724 1.859657 1.470940
v 4.096745 2.229400 2.717992
v 3.214259 0.962501 3.358317
v -1.898677 4.709693 4.489278
v -3.020250 4.707786 8.309725
v -5.820575 6.192657 9.392871
v -2.236908 6.455093 3.512785
v 5.168290 3.249779 1.553616
v -2.222795 8.214577 1.817815
v -7.707239 17.358864 -0.044878
v 5.604241 3.762253 -0.044879
v 6.729020 -4.116631 0.949840
v 5.911712 -3.962265 2.637509
v 5.533092 -3.629887 1.867259
v 3.628705 -2.921513 2.899916
v 0.913775 -1.241448 2.156964
v 0.758792 -1.408451 2.156870
v 3.226800 -3.549587 2.435910
v 5.215238 -4.956841 1.780926
v 5.693015 -5.198174 0.014906
v 0.913779 -1.241447 -2.246725
v 4.847318 -2.016964 -2.919968
v 3.628760 -2.921722 -2.946279
v 5.911803 -3.962467 -2.683786
v 6.057353 -2.547661 -2.229461
v 6.778628 -2.794769 -1.004435
v 6.729827 -4.116840 -0.995755
v 4.226125 -6.475399 -0.060977
v 2.665393 -5.076763 -1.431967
v 2.493068 -5.665649 -1.383391
v 3.748229 -4.514904 -1.679178
v 5.693017 -5.198170 -0.060976
v 5.215322 -4.957542 -1.827554
v 3.226821 -3.549877 -2.482003
v 1.684157 -2.685615 -2.091218
v 0.760673 -1.408531 -2.224346
v 0.913779 -1.241447 -2.246725
v 2.753165 -2.161342 -2.028189
v 3.628760 -2.921722 -2.946279
v 3.996503 -2.776832 -2.022215
v 5.533139 -3.630092 -1.913753
v 5.911803 -3.962467 -2.683786
v 6.729827 -4.116840 -0.995755
v 1.988362 -3.763214 -1.861296
v 1.067451 -3.303070 -1.177856
v 5.357408 -3.641182 -1.179615
v 5.981738 -2.547729 -1.376679
v -3.216848 -0.672630 -0.044880
v -1.240056 -2.461094 -1.364879
v -0.874588 -2.626141 1.297924
v 0.774697 -3.061905 -0.044879
v 1.066583 -3.304268 1.089098
v -1.071482 -2.307694 2.327982
v 1.250682 -4.022526 1.911082
v 1.987695 -3.764538 1.772524
v 2.664620 -5.077312 1.387048
v 3.180945 -5.323814 1.743774
v 6.057687 -2.547627 2.183754
v 3.996501 -2.776833 1.932457
v 4.909675 -2.016949 2.177058
v 5.533092 -3.629887 1.867259
v -2.162763 2.503440 4.632649
v -5.820575 6.192657 9.392871
v -3.652493 3.240921 3.006908
v -3.020250 4.707786 8.309725
v 0.709517 1.081550 3.627306
v 3.181821 -5.323299 -1.788912
v 2.665393 -5.076763 -1.431967
v 1.251069 -4.022243 -1.956330
v 1.988362 -3.763214 -1.861296
v 1.067451 -3.303070 -1.177856
v -1.071135 -2.307449 -2.373285
v 2.222718 -3.814487 -0.044879
v 0.709517 1.081550 3.627306
v -3.735883 1.866523 3.006910
v -3.652493 3.240921 3.006908
v -2.323318 -1.779930 3.285623
v -2.236905 6.455101 -3.602542
v 5.168290 3.249779 -1.643373
v -2.222794 8.214577 -1.907573
v -13.115501 5.785530 -0.044879
v -11.785480 4.862023 -2.719176
v -11.785480 4.862014 2.629418
v 5.975631 -3.947247 -0.044951
v 6.479899 -2.794479 -0.045022
v -3.652493 3.240921 3.006908
v -5.820575 6.192657 9.392871
v -1.898677 4.709693 4.489278
v -1.898677 4.709702 -4.579038
v -5.820574 6.192643 -9.102273
v -3.652493 3.240937 -3.096667
v -1.071482 -2.307694 2.327982
v -0.374093 -0.603897 2.058627
v -0.874588 -2.626141 1.297924
v 0.913775 -1.241448 2.156964
v -0.374093 -0.603897 2.058627
v 0.758792 -1.408451 2.156870
v -0.374094 -0.603912 -2.148385
v -1.071135 -2.307449 -2.373285
v -1.240056 -2.461094 -1.364879
v -1.898677 4.709702 -4.579038
v -3.652493 3.240937 -3.096667
v -2.236905 6.455101 -3.602542
v -3.976767 6.210679 -2.622513
v -3.757077 7.514519 -1.833230
v -3.057415 7.938438 -0.044879
v -9.626114 12.977356 -0.044878
v -3.757077 7.514519 1.743472
v -2.236908 6.455093 3.512785
v -3.976766 6.210662 2.532755
v -3.652493 3.240921 3.006908
v -1.898677 4.709693 4.489278
v 2.665393 -5.076763 -1.431967
v 3.181821 -5.323299 -1.788912
v 2.493068 -5.665649 -1.383391
v 3.180945 -5.323814 1.743774
v 2.664620 -5.077312 1.387048
v 2.492391 -5.666225 1.316791
vn 0.1368 -0.0083 0.9906
vn 0.1341 -0.0238 0.9907
vn -0.5854 -0.7911 -0.1775
vn -0.3387 -0.8397 -0.4244
vn -0.2649 -0.8530 -0.4496
vn 0.4191 0.9071 0.0387
vn 0.5131 0.8570 0.0473
vn 0.3083 -0.6064 0.7330
vn 0.3260 -0.3448 0.8802
vn -0.1610 -0.8071 0.5680
vn -0.3248 -0.6858 0.6513
vn 0.2275 -0.7801 0.5829
vn 0.3527 -0.8380 0.4165
vn 0.6434 0.1844 -0.7430
vn -0.0164 0.1439 -0.9895
vn 0.0569 0.3082 -0.9496
vn -0.1387 0.6104 -0.7798
vn -0.5057 0.2465 -0.8267
vn 0.4204 0.9064 -0.0401
vn 0.5128 0.8571 -0.0489
vn 0.0626 -0.8125 -0.5796
vn 0.1301 -0.7869 -0.6033
vn 0.6323 -0.7262 -0.2699
vn 0.0501 -0.8170 0.5745
vn 0.1309 -0.7868 0.6032
vn 0.6322 -0.7261 0.2703
vn 0.0196 0.1483 0.9887
vn 0.1265 -0.0692 0.9895
vn -0.2245 -0.1330 0.9653
vn -0.1596 -0.3552 0.9211
vn 0.0487 -0.3641 0.9301
vn -0.7040 0.4907 0.5135
vn -0.6014 0.0274 0.7985
vn -0.7036 0.4912 -0.5135
vn -0.6012 0.0281 -0.7986
vn 0.0807 0.2428 0.9667
vn 0.0629 0.2366 0.9696
vn 0.0303 -0.7784 0.6270
vn 0.0590 -0.5858 0.8083
vn -0.4413 -0.7498 0.4929
vn -0.1840 -0.3804 0.9063
vn -0.2904 -0.4552 0.8417
vn -0.4113 -0.7042 0.5788
vn -0.5853 -0.1546 0.7960
vn -0.2137 -0.2876 0.9336
vn -0.2208 -0.2826 0.9335
vn -0.1272 0.2220 0.9667
vn 0.0855 -0.0631 0.9943
vn 0.5409 0.2058 0.8155
vn 0.8657 0.0697 0.4958
vn 0.8981 -0.0370 0.4383
vn 0.0303 -0.7784 -0.6270
vn 0.0565 -0.6055 -0.7938
vn -0.4433 -0.7579 -0.4787
vn -0.1693 -0.3697 -0.9136
vn -0.2904 -0.4552 -0.8417
vn -0.4113 -0.7042 -0.5788
vn -0.5927 -0.0624 -0.8030
vn -0.1222 -0.4251 -0.8969
vn 0.0546 -0.3410 -0.9385
vn 0.0931 -0.8019 -0.5902
vn 0.2679 -0.8483 -0.4568
vn 0.0331 -0.9804 -0.1941
vn 0.0331 -0.9805 0.1939
vn 0.2679 -0.8482 0.4568
vn 0.0931 -0.8018 0.5903
vn 0.0545 -0.3410 0.9385
vn -0.1043 -0.4173 0.9028
vn -0.0976 -0.0438 -0.9943
vn 0.0205 0.1226 -0.9922
vn 0.1193 -0.0791 -0.9897
vn -0.2230 -0.1408 -0.9646
vn -0.1599 -0.3558 -0.9208
vn 0.0479 -0.3646 -0.9299
vn 0.1787 -0.3013 0.9366
vn -0.6429 -0.2077 0.7372
vn -0.7336 0.0160 0.6794
vn -0.7057 0.0428 0.7072
vn -0.6837 -0.2115 0.6984
vn 0.1787 -0.3013 -0.9366
vn -0.6429 -0.2077 -0.7372
vn -0.6837 -0.2115 -0.6984
vn -0.7057 0.0428 -0.7072
vn -0.7336 0.0160 -0.6794
vn 0.3463 -0.7585 0.5520
vn 0.3372 -0.7710 0.5402
vn 0.3372 -0.7710 -0.5402
vn 0.3463 -0.7585 -0.5520
vn 0.9358 -0.1026 0.3373
vn 0.8813 -0.1481 0.4487
vn 0.8814 -0.1480 -0.4486
vn 0.9358 -0.1026 -0.3373
vn 0.3568 0.4967 -0.7912
vn 0.4788 0.0946 -0.8728
vn -0.1043 0.2672 -0.9580
vn -0.1181 0.2915 -0.9493
vn -0.7768 0.4233 -0.4663
vn -0.7707 0.3639 -0.5231
vn -0.7707 0.3639 0.5231
vn -0.7768 0.4233 0.4663
vn -0.1181 0.2915 0.9493
vn -0.1043 0.2672 0.9580
vn 0.4788 0.0946 0.8728
vn 0.3568 0.4967 0.7912
vn 0.0767 0.2094 -0.9748
vn -0.0540 0.2990 -0.9527
vn -0.1744 0.8605 -0.4787
vn -0.1382 0.8545 -0.5008
vn -0.1382 0.8544 0.5008
vn -0.1744 0.8605 0.4787
vn -0.0540 0.2990 0.9527
vn 0.0767 0.2094 0.9748
vn 0.1212 -0.4067 0.9055
vn 0.1991 -0.1543 0.9677
vn -0.1625 -0.4411 0.8826
vn 0.0129 0.1590 0.9872
vn 0.0020 0.1665 0.9860
vn -0.0311 0.9181 0.3950
vn 0.0119 0.9073 0.4203
vn 0.0119 0.9073 -0.4203
vn -0.0311 0.9181 -0.3950
vn 0.0020 0.1665 -0.9860
vn 0.0129 0.1590 -0.9872
vn -0.1625 -0.4411 -0.8826
vn 0.1991 -0.1543 -0.9677
vn 0.1212 -0.4067 -0.9055
vn -0.8767 0.3373 -0.3428
vn -0.8124 -0.4010 -0.4234
vn -0.8124 -0.4010 0.4234
vn -0.8767 0.3373 0.3428
vn -0.7287 0.4403 0.5246
vn -0.6427 -0.5007 0.5799
vn -0.6427 -0.5007 -0.5799
vn -0.7287 0.4403 -0.5245
vn 0.4916 0.8587 -0.1448
vn 0.6070 0.7744 -0.1786
vn 0.3564 0.2117 -0.9100
vn 0.4233 0.1562 -0.8924
vn 0.5425 0.2492 -0.8022
vn 0.8890 0.2415 -0.3891
vn 0.9503 0.1599 -0.2670
vn 0.9503 0.1599 0.2670
vn 0.8890 0.2415 0.3891
vn 0.5425 0.2492 0.8022
vn 0.4233 0.1562 0.8924
vn 0.3564 0.2117 0.9100
vn 0.6070 0.7744 0.1786
vn 0.5077 0.8485 0.1495
vn 0.4296 0.5029 0.7500
vn 0.4092 0.4657 0.7847
vn 0.4404 0.6211 0.6484
vn 0.2611 0.3406 0.9033
vn 0.6590 0.6452 0.3866
vn 0.7778 0.5051 0.3741
vn 0.5405 0.3202 0.7780
vn -0.4673 -0.8719 -0.1465
vn -0.4250 -0.8882 -0.1744
vn -0.4723 -0.8276 -0.3033
vn -0.4297 -0.8547 -0.2912
vn -0.4538 -0.8507 -0.2654
vn 0.0435 -0.1246 0.9912
vn 0.0945 -0.0883 0.9916
vn 0.6261 0.6696 -0.3997
vn 0.6261 0.6694 -0.3999
vn 0.2758 0.6976 -0.6613
vn 0.2923 0.9549 -0.0514
vn -0.4402 0.5056 -0.7420
vn -0.2022 -0.2630 -0.9434
vn -0.2119 -0.2561 -0.9431
vn -0.1270 0.1993 -0.9717
vn 0.0790 -0.0774 -0.9939
vn 0.5510 0.2032 -0.8094
vn 0.8657 0.0701 -0.4956
vn 0.8980 -0.0360 -0.4385
vn -0.5242 0.2212 0.8224
vn -0.1385 0.6101 0.7801
vn -0.4400 0.5054 0.7423
vn 0.2932 0.9547 0.0508
vn 0.2775 0.6986 0.6595
vn 0.5162 0.6951 0.5003
vn 0.4267 0.3934 0.8143
vn -0.0180 -0.1165 -0.9930
vn 0.0881 -0.0601 -0.9943
vn -0.4562 -0.8486 0.2677
vn -0.4240 -0.8536 0.3026
vn -0.4773 -0.8191 0.3184
vn -0.4250 -0.8882 0.1744
vn -0.4671 -0.8719 0.1466
vn 0.0437 0.3306 0.9427
vn -0.0137 0.2049 0.9787
vn 0.6634 0.3305 0.6713
vn 0.4357 -0.8543 -0.2834
vn 0.2307 -0.7769 -0.5859
vn -0.3328 -0.6787 -0.6547
vn -0.1610 -0.8071 -0.5680
vn 0.3260 -0.3448 -0.8802
vn 0.3083 -0.6065 -0.7329
vn -0.6543 -0.7550 0.0430
vn -0.2723 -0.9620 -0.0223
vn -0.3385 -0.9342 -0.1125
vn -0.2989 -0.9263 0.2292
vn -0.5797 -0.6735 -0.4587
vn 0.1305 -0.7319 -0.6688
vn -0.2361 0.1597 -0.9585
vn -0.5344 -0.8194 0.2073
vn 0.0970 0.1975 -0.9755
vn 0.0914 0.2385 -0.9668
vn -0.5806 -0.7961 0.1709
vn -0.2791 -0.8509 0.4450
vn -0.2649 -0.8530 0.4496
vn -0.5343 -0.8196 -0.2070
vn -0.1975 0.2111 0.9573
vn 0.1592 -0.7062 0.6899
vn -0.5758 -0.6637 0.4774
vn -0.3222 -0.9263 -0.1951
vn -0.3485 -0.9311 0.1081
vn -0.4600 -0.8852 0.0695
vn -0.4600 -0.8851 -0.0708
vn 0.1368 -0.0083 -0.9906
vn 0.1341 -0.0238 -0.9907
vn 0.4296 0.5029 -0.7500
vn 0.4092 0.4657 -0.7847
vn 0.4404 0.6211 -0.6484
vn 0.2611 0.3406 -0.9033
vn 0.6590 0.6452 -0.3866
vn 0.7778 0.5051 -0.3741
vn 0.5405 0.3202 -0.7780
vn 0.8318 0.4640 0.3045
vn 0.8318 0.4640 -0.3045
vn -0.3873 0.7456 0.5423
vn -0.3873 0.7456 -0.5423
vn -0.2857 0.8531 -0.4367
vn -0.0780 0.2957 -0.9521
vn -0.1346 0.2478 -0.9594
vn -0.4834 0.7669 -0.4220
vn -0.5297 0.6851 -0.5000
vn -0.5297 0.6851 0.5000
vn -0.2857 0.8531 0.4367
vn -0.0780 0.2957 0.9521
vn -0.1346 0.2478 0.9594
vn -0.4834 0.7669 0.4220
vn 0.8456 -0.3699 -0.3849
vn 0.7011 -0.4931 -0.5150
vn -0.0343 -0.9695 -0.2428
vn -0.0343 -0.9695 0.2428
vn 0.7011 -0.4932 0.5150
vn 0.8457 -0.3699 0.3847
vn -0.2876 0.8284 -0.4806
vn -0.2663 0.8235 0.5009
vn -0.9045 0.3269 -0.2740
vn -0.0524 0.0480 0.9975
vn -0.9169 0.3877 -0.0945
vn -0.7306 0.2200 -0.6464
vn -0.4979 0.0834 -0.8632
vn -0.4749 0.5129 -0.7151
vn 0.2634 0.9105 -0.3189
vn 0.5599 0.7299 -0.3921
vn 0.5599 0.7299 0.3921
vn 0.2634 0.9105 0.3189
vn -0.4749 0.5129 0.7151
vn -0.4979 0.0834 0.8632
vn -0.7306 0.2200 0.6464
vn -0.5376 0.0881 -0.8386
vn -0.5476 0.0606 0.8345
usemtl None
s off
f 1//1 2//1 3//1
f 4//2 3//2 2//2
f 5//3 6//3 7//3
f 8//4 7//4 6//4
f 7//5 8//5 9//5
f 10//6 11//6 12//6
f 11//7 10//7 13//7
f 14//8 15//8 10//8
f 15//9 14//9 16//9
f 16//10 14//10 17//10
f 18//11 17//11 14//11
f 17//12 18//12 19//12
f 20//13 19//13 18//13
f 19//14 20//14 21//14
f 22//15 21//15 20//15
f 21//16 22//16 23//16
f 24//17 23//17 22//17
f 23//18 24//18 25//18
f 26//19 27//19 28//19
f 27//20 26//20 29//20
f 30//21 31//21 32//21
f 33//22 32//22 31//22
f 32//23 33//23 34//23
f 35//24 36//24 37//24
f 36//25 35//25 38//25
f 39//26 38//26 35//26
f 40//27 41//27 42//27
f 43//28 42//28 41//28
f 42//29 43//29 44//29
f 36//30 44//30 43//30
f 44//31 36//31 38//31
f 45//32 46//32 47//32
f 46//33 45//33 48//33
f 49//34 50//34 51//34
f 50//35 49//35 52//35
f 53//36 54//36 55//36
f 54//37 53//37 56//37
f 57//38 58//38 59//38
f 58//39 57//39 60//39
f 61//40 60//40 57//40
f 60//41 61//41 62//41
f 63//42 62//42 61//42
f 64//43 62//43 63//43
f 62//44 64//44 65//44
f 66//45 60//45 62//45
f 60//46 66//46 67//46
f 68//47 67//47 66//47
f 69//48 67//48 68//48
f 67//49 69//49 70//49
f 70//50 69//50 71//50
f 72//51 71//51 69//51
f 73//52 74//52 75//52
f 76//53 75//53 74//53
f 75//54 76//54 77//54
f 78//55 77//55 76//55
f 77//56 78//56 79//56
f 79//57 78//57 64//57
f 80//58 64//58 78//58
f 76//59 74//59 81//59
f 82//60 81//60 74//60
f 81//61 82//61 83//61
f 84//62 83//62 82//62
f 83//63 84//63 85//63
f 85//64 84//64 86//64
f 87//65 86//65 84//65
f 86//66 87//66 88//66
f 58//67 88//67 87//67
f 88//68 58//68 60//68
f 89//69 90//69 91//69
f 90//70 89//70 92//70
f 92//71 89//71 93//71
f 94//72 93//72 89//72
f 93//73 94//73 31//73
f 33//74 31//74 94//74
f 95//75 96//75 97//75
f 96//76 95//76 98//76
f 99//77 98//77 95//77
f 100//78 98//78 99//78
f 98//79 100//79 96//79
f 101//80 102//80 103//80
f 102//81 101//81 104//81
f 105//82 104//82 101//82
f 106//83 104//83 105//83
f 104//84 106//84 102//84
f 107//85 108//85 109//85
f 110//86 109//86 108//86
f 111//87 109//87 110//87
f 109//88 111//88 112//88
f 113//89 108//89 114//89
f 108//90 113//90 110//90
f 110//91 113//91 111//91
f 115//92 111//92 113//92
f 116//93 111//93 115//93
f 111//94 116//94 117//94
f 118//95 117//95 116//95
f 117//96 118//96 119//96
f 120//97 119//97 118//97
f 119//98 120//98 121//98
f 121//99 120//99 122//99
f 123//100 122//100 120//100
f 122//101 123//101 124//101
f 125//102 124//102 123//102
f 124//103 125//103 126//103
f 127//104 126//104 125//104
f 128//105 117//105 129//105
f 130//106 129//106 117//106
f 129//107 130//107 131//107
f 132//108 131//108 130//108
f 133//109 131//109 132//109
f 131//110 133//110 134//110
f 124//111 134//111 133//111
f 134//112 124//112 135//112
f 136//113 124//113 126//113
f 124//114 136//114 135//114
f 137//115 135//115 136//115
f 138//116 135//116 137//116
f 135//117 138//117 134//117
f 139//118 134//118 138//118
f 134//119 139//119 131//119
f 131//120 139//120 129//120
f 140//121 129//121 139//121
f 129//122 140//122 128//122
f 141//123 128//123 140//123
f 142//124 128//124 141//124
f 128//125 142//125 117//125
f 111//126 117//126 142//126
f 143//127 144//127 145//127
f 144//128 143//128 146//128
f 146//129 143//129 147//129
f 148//130 147//130 143//130
f 149//131 150//131 151//131
f 152//132 151//132 150//132
f 153//133 151//133 152//133
f 151//134 153//134 154//134
f 155//135 156//135 157//135
f 156//136 155//136 158//136
f 159//137 158//137 155//137
f 158//138 159//138 160//138
f 161//139 160//139 159//139
f 162//140 160//140 161//140
f 160//141 162//141 163//141
f 163//142 162//142 164//142
f 165//143 164//143 162//143
f 166//144 164//144 165//144
f 164//145 166//145 167//145
f 168//146 167//146 166//146
f 167//147 168//147 169//147
f 170//148 169//148 168//148
f 168//149 166//149 171//149
f 172//150 171//150 166//150
f 171//151 172//151 173//151
f 173//152 172//152 174//152
f 174//153 172//153 175//153
f 175//154 172//154 165//154
f 166//155 165//155 172//155
f 176//156 177//156 178//156
f 179//157 178//157 177//157
f 178//158 179//158 14//158
f 14//159 179//159 18//159
f 180//160 18//160 179//160
f 18//161 180//161 20//161
f 181//162 20//162 180//162
f 182//163 20//163 181//163
f 20//164 182//164 22//164
f 183//165 22//165 182//165
f 184//166 22//166 183//166
f 22//167 184//167 24//167
f 78//168 76//168 185//168
f 186//169 185//169 76//169
f 185//170 186//170 187//170
f 187//171 186//171 188//171
f 189//172 188//172 186//172
f 190//173 188//173 189//173
f 188//174 190//174 191//174
f 192//175 193//175 194//175
f 193//176 192//176 195//176
f 196//177 195//177 192//177
f 197//178 195//178 196//178
f 198//179 195//179 197//179
f 195//180 198//180 199//180
f 200//181 199//181 198//181
f 201//182 199//182 200//182
f 199//183 201//183 202//183
f 203//184 202//184 201//184
f 202//185 203//185 204//185
f 204//186 203//186 205//186
f 206//187 205//187 203//187
f 205//188 206//188 207//188
f 195//189 208//189 193//189
f 199//190 208//190 195//190
f 208//191 199//191 209//191
f 202//192 209//192 199//192
f 209//193 202//193 17//193
f 204//194 17//194 202//194
f 17//195 204//195 210//195
f 210//196 204//196 211//196
f 27//197 211//197 204//197
f 212//198 213//198 214//198
f 215//199 214//199 213//199
f 216//200 214//200 215//200
f 214//201 216//201 217//201
f 217//202 216//202 218//202
f 219//203 218//203 216//203
f 220//204 218//204 219//204
f 218//205 220//205 221//205
f 222//206 223//206 224//206
f 223//207 222//207 225//207
f 226//208 227//208 228//208
f 227//209 226//209 229//209
f 230//210 229//210 226//210
f 231//211 232//211 233//211
f 234//212 233//212 232//212
f 235//213 233//213 234//213
f 233//214 235//214 236//214
f 236//215 235//215 213//215
f 213//216 235//216 215//216
f 237//217 215//217 235//217
f 215//218 237//218 216//218
f 238//219 239//219 240//219
f 239//220 238//220 241//220
f 242//221 159//221 155//221
f 159//222 242//222 243//222
f 244//223 243//223 242//223
f 174//224 243//224 244//224
f 175//225 243//225 174//225
f 161//226 243//226 175//226
f 243//227 161//227 159//227
f 165//228 162//228 175//228
f 161//229 175//229 162//229
f 133//230 132//230 245//230
f 130//231 245//231 132//231
f 245//232 130//232 246//232
f 117//233 246//233 130//233
f 119//234 246//234 117//234
f 121//235 246//235 119//235
f 246//236 121//236 245//236
f 247//237 245//237 121//237
f 245//238 247//238 133//238
f 133//239 247//239 124//239
f 124//240 247//240 122//240
f 121//241 122//241 247//241
f 248//242 211//242 249//242
f 211//243 248//243 210//243
f 210//244 248//244 17//244
f 17//245 248//245 16//245
f 16//246 248//246 15//246
f 249//247 15//247 248//247
f 250//248 251//248 252//248
f 253//249 254//249 255//249
f 256//250 257//250 258//250
f 259//251 260//251 261//251
f 262//252 263//252 264//252
f 265//253 266//253 267//253
f 268//254 267//254 266//254
f 269//255 267//255 268//255
f 267//256 269//256 270//256
f 271//257 270//257 269//257
f 272//258 270//258 271//258
f 270//259 272//259 273//259
f 274//260 273//260 272//260
f 275//261 273//261 274//261
f 273//262 275//262 276//262
f 277//263 278//263 279//263
f 280//264 281//264 282//264
